<?xml version="1.0" encoding="UTF-8"?>
<svg width="703px" height="497px" viewBox="0 0 703 497" version="1.1" xmlns="http://www.w3.org/2000/svg" xmlns:xlink="http://www.w3.org/1999/xlink">
    <!-- Generator: Sketch 52.3 (67297) - http://www.bohemiancoding.com/sketch -->
    <title>undraw_work_in_progress_uhmv (1)</title>
    <desc>Created with Sketch.</desc>
    <defs>
        <filter x="-1.7%" y="-2.5%" width="103.5%" height="104.9%" filterUnits="objectBoundingBox" id="filter-1">
            <feOffset dx="0" dy="2" in="SourceAlpha" result="shadowOffsetOuter1"></feOffset>
            <feGaussianBlur stdDeviation="2" in="shadowOffsetOuter1" result="shadowBlurOuter1"></feGaussianBlur>
            <feColorMatrix values="0 0 0 0 0   0 0 0 0 0   0 0 0 0 0  0 0 0 0.5 0" type="matrix" in="shadowBlurOuter1" result="shadowMatrixOuter1"></feColorMatrix>
            <feMerge>
                <feMergeNode in="shadowMatrixOuter1"></feMergeNode>
                <feMergeNode in="SourceGraphic"></feMergeNode>
            </feMerge>
        </filter>
    </defs>
    <g id="Page-1" stroke="none" stroke-width="1" fill="none" fill-rule="evenodd">
        <g id="Desktop" transform="translate(-693.000000, -234.000000)">
            <g id="undraw_work_in_progress_uhmv-(1)" filter="url(#filter-1)" transform="translate(697.000000, 236.000000)">
                <ellipse id="Oval" fill="#E6E6E6" cx="59" cy="482" rx="59" ry="7"></ellipse>
                <rect id="Rectangle" fill="#E6E6E6" x="153" y="0" width="542" height="342"></rect>
                <rect id="Rectangle" fill="#FFFFFF" x="170" y="43" width="510" height="279"></rect>
                <rect id="Rectangle" fill="#215CFE" x="153" y="0" width="542" height="23"></rect>
                <circle id="Oval" fill="#FFFFFF" cx="171.5" cy="10.5" r="4.5"></circle>
                <circle id="Oval" fill="#FFFFFF" cx="186.5" cy="10.5" r="4.5"></circle>
                <circle id="Oval" fill="#FFFFFF" cx="203.5" cy="10.5" r="4.5"></circle>
                <path d="M458.596115,114 C458.483013,114.325921 458.418477,114.661644 458.403885,115 L458.596115,114 Z" id="Path" fill="#7F77FF"></path>
                <path d="M394.673175,142.974099 C394.635015,142.310679 394.473605,142.033448 394.326825,142 C394.432995,142.615969 394.532305,143.121872 394.673175,142.974099 Z" id="Path" fill="#7F77FF"></path>
                <path d="M391.57953,158 C391.55021,158.327851 391.52083,158.631131 391.47192,159 C391.376616,158.665757 391.414407,158.314573 391.57953,158 Z" id="Path" fill="#7F77FF"></path>
                <path d="M458.754395,113 L458.245605,116.977142 C458.773445,117.255388 458.637465,114.938791 458.754395,113 Z" id="Path" fill="#7F77FF"></path>
                <path d="M481,90.83022 L481.546216,90.82778 C481.710079,90.636991 481.862169,90.4164554 482,90.16978 L481,90.83022 Z" id="Path" fill="#7F77FF"></path>
                <path d="M513.184816,93 C513.249757,92.7588205 513.572834,92.5640873 514,92.5086526 C513.762561,92.3241252 513.490926,92.153969 513.189563,92.0009828 C512.751767,91.969845 513.213332,92.6867185 513.184816,93 Z" id="Path" fill="#7F77FF"></path>
                <path d="M542.329065,72.528575 C542.455185,72.509405 542.575215,72.490575 542.670935,72.471425 L542.329065,72.528575 Z" id="Path" fill="#7F77FF"></path>
                <path d="M542.106075,72.56584 L542.893925,72.43416 C542.632795,72.47378 542.335825,72.51505 542.106075,72.56584 Z" id="Path" fill="#7F77FF"></path>
                <path d="M457.745345,93.3706679 C457.550345,93.3308522 457.35197,93.4216486 457.254655,93.5952579 C457.426405,93.7069879 457.590265,93.5923379 457.745345,93.3706679 Z" id="Path" fill="#7F77FF"></path>
                <path d="M580.0778,74.10778 L580.15167,74.75267 C580.401499,74.8319062 580.660451,74.8788047 580.9222,74.89222 L580.0778,74.10778 Z" id="Path" fill="#7F77FF"></path>
                <path d="M389.721821,175.441295 C389.731621,175.441295 389.731621,175.451095 389.712031,175.470625 C389.712031,175.480415 389.702241,175.490205 389.692501,175.500005 C389.692501,175.519585 389.545721,175.539115 389.438111,175.558705 C389.383784,175.54334 389.328045,175.533496 389.271741,175.529325 C389.418521,175.509795 389.565301,175.480415 389.682741,175.470625 C389.702241,175.451095 389.712031,175.441295 389.721821,175.441295 Z" id="Path" fill="#7F77FF"></path>
                <path d="M302.813193,295 C299.164393,293.330367 308.751472,292.85644 303.258005,291 C303.769544,291.731807 298.264996,293.914552 302.813193,295 Z" id="Path" fill="#7F77FF"></path>
                <path d="M328.803305,189.064635 C328.668324,189.396353 328.461095,189.69381 328.196695,189.935365 C328.490265,189.289655 328.656575,189.093955 328.803305,189.064635 Z" id="Path" fill="#7F77FF"></path>
                <path d="M373,178.588055 C372.664162,178.572711 372.329697,178.513808 372,178.411945 L373,178.588055 Z" id="Path" fill="#7F77FF"></path>
                <path d="M312,193.45516 C311.669733,193.351019 311.330233,193.351161 311,193.45558 C311.068435,193.525497 311.141829,193.58166 311.218577,193.62284 C311.46542,193.455959 311.734992,193.398114 312,193.45516 Z" id="Path" fill="#7F77FF"></path>
                <path d="M312.154865,193.44476 C312.359165,193.48053 312.572945,193.52176 312.845135,193.55524 C312.617708,193.503362 312.387123,193.466456 312.154865,193.44476 Z" id="Path" fill="#7F77FF"></path>
                <path d="M285,193.36155 C285.105612,193.46677 285.245325,193.54547 285.367973,193.63845 C285.565618,193.61534 285.796441,193.58835 286,193.56458 L285,193.36155 Z" id="Path" fill="#7F77FF"></path>
                <path d="M309.539145,193.446195 C309.533354,193.493167 309.503764,193.533838 309.460855,193.553805 C309.499965,193.495105 309.539145,193.446195 309.539145,193.446195 Z" id="Path" fill="#7F77FF"></path>
                <path d="M576.8425,292.531825 C576.62041,292.512655 576.40077,292.494325 576.1575,292.468175 C576.41385,292.501195 576.63647,292.519765 576.8425,292.531825 Z" id="Path" fill="#7F77FF"></path>
                <path d="M583.511945,267.485324 C583.503645,267.485744 583.496415,267.491064 583.488055,267.491064 C583.496235,267.528504 583.504115,267.517514 583.511945,267.485324 Z" id="Path" fill="#7F77FF"></path>
                <path d="M371,178.65165 C371.275706,178.584953 371.545511,178.48335 371.805408,178.34835 C372.365346,178.53424 371.598284,178.52445 371,178.65165 Z" id="Path" fill="#7F77FF"></path>
                <path d="M581.413415,173.90557 C581.466205,173.67363 581.521195,173.41267 581.586585,173.09443 C581.522995,173.36847 581.470585,173.63559 581.413415,173.90557 Z" id="Path" fill="#7F77FF"></path>
                <path d="M583.098981,256.32956 C583.182697,256.14678 583.300172,255.981142 583.445341,255.841198 L583.553059,256.222722 C583.6371,255.438884 583.585049,254.646565 583.399164,253.880155 C583.566862,252.862875 583.664563,251.835463 583.69159,250.805034 C584.507439,250.370095 584.130312,246.440421 584.176489,244.548079 C583.098981,244.70065 583.268279,242.266523 582.398551,244.487021 C582.460139,244.357317 582.498607,245.005892 582.544792,246.165735 C582.561592,246.437952 582.600202,246.708414 582.660259,246.974562 C582.629492,246.936348 582.598671,246.890599 582.560195,246.844812 C582.58326,248.088586 582.60638,249.713885 582.637146,251.560494 C581.901877,249.937578 581.755053,248.112584 582.221544,246.394641 C581.528816,245.425553 580.813031,244.349682 580.482074,243.746839 C581.990651,241.152507 582.806499,236.146915 583.730113,235.452513 C583.129747,229.661022 583.329866,221.809207 581.297923,218.161862 C581.036263,216.513658 581.882886,216.26952 582.206134,215.651384 C582.406253,216.605194 582.375486,217.734535 582.66796,218.253406 C582.144593,214.957029 582.467841,208.494033 581.043917,207.708072 C581.682759,203.557087 582.352374,210.042996 582.121481,204.335413 L582.552494,205.106097 C584.784557,194.080044 579.135149,187.105773 581.705871,175.057264 C581.605815,175.507435 581.513453,175.774533 581.3441,175.896602 C582.629508,161.719154 580.135714,146.671867 582.175359,132.677547 C582.58326,128.702093 581.682759,128.267154 580.990086,125.840662 L582.152247,124.97842 L580.813031,120.827435 C579.827877,114.944314 583.660824,110.640712 581.805934,103.185769 L581.020844,104.147215 C581.174794,101.468911 580.559073,95.6697144 581.459566,96.1199314 C580.977111,95.6019848 580.823088,94.8620177 581.05932,94.1970409 L581.667411,94.1131165 L580.620621,87.5356404 C581.059336,82.4461237 583.037401,88.3368331 583.152891,80.8971142 C582.92195,78.1348864 581.382607,73.0300915 580.974706,74.067826 C580.951594,75.1818965 580.59758,76.914025 579.989505,76.9979494 L579.673959,74.4722633 C579.558492,74.4417149 579.450774,74.4112055 579.335308,74.3730608 L579.335308,73.9686235 L578.234679,73.9686235 C577.772326,73.7739971 577.250044,73.7739971 576.787691,73.9686235 L549.194962,73.9686235 L549.495097,73.6710706 L548.586895,73.9686235 L544.692352,73.9686235 C544.807827,73.7397247 545.177252,73.5489627 545.946923,73.4573953 C543.114542,72.6714808 543.437789,74.0220384 541.013348,73.1445643 C540.743939,73.007225 540.859406,72.9308734 541.113412,72.8698389 L538.342563,73.3429225 C538.88905,73.007225 537.888485,72.2212637 539.581723,72.4501703 C534.625044,71.5345048 531.584873,73.6405222 529.714604,72.434939 L530.130206,72.3433326 C524.981109,72.740127 527.159286,73.1903519 526.420389,73.9686313 L523.203171,73.9686313 L522.556628,73.4345367 L521.686901,72.7172683 C521.390717,72.4474663 521.068467,72.2072188 520.724812,72 C520.459812,72.3684718 520.223115,72.7561645 520.016721,73.1598035 C519.216283,73.1216589 517.569175,73.0377345 517.646126,72.5646509 C516.237661,72.9690414 516.530134,73.0911572 516.868793,73.2132262 C517.238218,73.3353342 517.684641,73.449768 517.115018,73.831292 C516.213252,73.6200376 515.29316,73.4948371 514.367329,73.4574031 C514.267273,75.1513949 514.390394,77.2040129 514.351918,78.7682381 C514.313451,80.4011252 514.121033,81.45413 513.366717,81.7822859 C514.25958,82.9955043 514.059445,78.5393315 514.682875,82.1561748 C512.666343,83.1709882 515.021534,86.3834409 514.09792,89.3974887 C513.05888,88.5276029 513.613021,85.5364685 512.681745,88.6497187 C512.974308,88.9572701 513.190406,89.3282874 513.312838,89.733233 C513.400264,90.1424076 513.41071,90.5640713 513.343652,90.9770076 C513.206704,91.7101351 512.997904,92.4282603 512.720221,93.1211696 C512.265074,93.0080953 511.792728,92.9796399 511.327119,93.0372452 C511.78889,93.7316003 510.757575,93.8765747 509.210523,93.9070842 C508.2792,93.9070842 507.209345,93.9147193 506.116426,93.9147193 C504.969628,93.9299975 503.792009,93.9604991 502.683679,94.0749797 C502.960797,93.6095313 494.363534,93.3195668 490.253509,92.815927 L490.368936,92.5793852 C489.576199,93.9834202 485.335297,93.7163222 482.241209,94.0062867 C482.364384,93.1669494 482.918526,92.838848 484.5964,92.4649592 L481.687067,92.4725475 C481.002049,92.9227646 480.101547,93.1593142 478.215844,93.3195668 L478.94704,92.266562 C477.015152,92.2970636 475.067909,92.6098946 472.982086,92.8235699 C471.935344,92.9304154 470.86549,93.006689 469.734048,93.0219671 C469.172205,93.0296101 468.594959,93.014332 468.002287,92.9838225 C467.709806,92.9685522 467.40967,92.9456077 467.109487,92.9151295 C466.770828,92.8769875 466.432172,92.8388299 466.093519,92.8006566 C465.985746,93.0448336 466.36288,93.3424333 466.601523,93.6476759 C466.897185,93.9434385 467.165104,94.2652456 467.401968,94.6091212 C467.540547,94.8003018 467.566875,95.0498615 467.471195,95.2653316 L464.777345,95.2653316 C464.785046,94.9753671 464.962108,94.715912 465.531653,94.5785727 C464.739027,94.8029571 463.907317,94.857584 463.091761,94.7388253 C463.707538,94.4488608 464.423323,94.1512611 465.231485,93.8536459 C462.306742,93.4645334 464.030801,94.5938275 461.975793,94.5099031 C461.552434,93.7620863 460.005437,93.9757616 459.836068,93.3805623 C460.413322,93.3042731 462.07584,93.6857971 462.81469,93.3958404 C461.283057,93.3195512 459.474345,93.1440205 457.811826,92.8998279 C457.713966,93.6341253 457.490101,94.3464101 457.14992,95.0058532 C457.580933,95.0439978 458.173597,95.7612583 458.265959,97.7223012 C458.296725,100.232779 458.065832,100.637147 457.78106,100.797422 C457.64252,100.873712 457.488578,100.881347 457.342338,101.079744 C457.253557,101.21475 457.183647,101.361064 457.134517,101.514691 C457.055434,101.719183 456.998675,101.931485 456.965211,102.147965 C457.488578,103.078908 456.942099,105.52067 458.081243,105.589316 C458.073541,106.711022 457.542465,106.917015 457.234572,107.351954 C457.73489,109.33591 457.380813,116.615369 458.589207,114.379647 L458.66615,113.868419 C458.689263,113.967614 458.696972,114.074405 458.720037,114.19652 C459.035782,116.166634 459.15951,118.162304 459.089509,120.155923 C459.043332,121.819366 458.88168,123.398877 458.727738,124.787634 C457.596343,124.688432 456.549554,124.604507 455.572109,124.558728 C455.079508,124.543449 454.60231,124.528171 454.12512,124.543449 L453.201507,124.566316 C452.878259,124.589229 452.547302,124.604531 452.224007,124.619739 L452.239417,124.24585 C448.352585,124.673154 443.588315,124.49767 440.817522,125.314133 C439.670669,125.306498 438.108253,124.619739 438.600862,124.177204 C435.629894,124.459525 435.298936,124.879194 431.011865,124.261128 C433.990487,123.604917 429.980549,123.673564 434.067486,123.780401 C430.211427,123.4523 429.333983,122.849458 425.193136,123.879604 C426.601649,122.910516 422.291505,122.666339 420.459681,122.94866 L423.16124,123.643062 C421.263763,123.744259 419.361909,123.734056 417.465648,123.612506 L418.45081,122.345865 C414.51009,121.575181 410.946513,122.231392 407.621602,122.757898 C406.028281,123.046294 404.414854,123.212126 402.795745,123.253911 L402.21079,123.246275 L401.464246,123.208131 C400.886992,123.177629 400.302037,123.131803 399.709373,123.063149 C398.412568,122.90962 397.125269,122.685452 395.853315,122.39166 C394.467914,122.834234 396.315141,122.986859 398.016088,123.162343 C399.763267,123.337819 401.34878,123.536232 400.148095,124.055096 C397.603197,123.888144 395.07123,123.56449 392.566847,123.086007 C392.069886,124.748867 391.72217,126.452025 391.527759,128.175594 C391.435405,129.175192 391.404639,130.083214 391.404639,130.884407 C391.404639,131.281209 391.41234,131.662741 391.435405,132.013693 C391.443107,132.173946 391.450816,132.410488 391.466179,132.486777 C391.481582,132.578336 391.496993,132.677539 391.512357,132.769099 C391.643412,133.429622 391.852687,134.072492 392.135835,134.684354 C392.870134,136.231993 393.139968,137.95635 392.91316,139.651809 C393.367285,138.987956 394.591042,138.36989 395.014393,142.223275 C394.922039,144.359802 394.260085,145.527288 393.667468,145.634125 C393.336519,145.702756 393.028634,145.435728 392.85162,144.840529 C392.797829,144.689508 392.759154,144.533608 392.736153,144.37508 C392.697677,143.51283 392.843926,143.100804 392.99786,143.131306 C392.828507,141.971455 392.636089,140.445351 392.143489,141.872307 L392.597614,142.337756 C392.453003,142.991382 392.355267,143.654341 392.30514,144.321658 C392.097312,146.37426 391.974183,148.762607 391.427704,147.915634 C391.80483,150.242915 392.08961,149.44173 392.312842,147.892721 C391.827942,152.013196 392.366728,154.577027 391.951071,159.040882 C392.205077,158.28543 392.743854,157.58344 392.736161,158.338845 C392.166617,165.313115 393.605896,161.413966 393.806023,166.137221 C393.105594,168.823121 392.143504,165.175776 392.720758,169.929548 C392.251269,172.836758 391.512372,170.547614 391.142939,169.395407 C391.506237,171.372795 391.511455,173.398521 391.15835,175.377723 C391.135238,175.507427 391.119875,175.637178 391.096762,175.759247 C391.081359,175.850806 391.065996,175.950009 391.050585,176.041568 L391.019819,176.201829 C391.012109,176.247608 391.004408,176.239973 390.996707,176.255244 L390.935119,176.331533 C390.866067,176.408457 390.78863,176.477559 390.704225,176.537573 C390.595892,176.600319 390.492932,176.671768 390.39638,176.751201 C390.319726,176.629677 390.226471,176.51926 390.11927,176.423092 C390.213596,176.52993 390.25829,176.671149 390.242438,176.812259 C390.336505,176.873883 390.434169,176.929931 390.534919,176.980108 C390.733055,177.082037 390.942199,177.16139 391.15835,177.21665 C391.004408,177.43796 390.996707,177.659232 390.696524,177.384545 C390.662335,177.360488 390.631308,177.332296 390.604162,177.300621 C390.873026,177.69943 391.193958,178.061199 391.558597,178.3765 C391.958796,178.780937 392.435986,179.21583 391.981908,179.620267 C391.349841,179.46512 390.692531,179.439165 390.05002,179.543985 C389.888377,179.551574 389.726772,179.551574 389.57283,179.543985 C389.330204,179.530187 389.088616,179.502148 388.849336,179.460014 C388.458655,179.432525 388.101792,179.230368 387.879545,178.910642 C388.59533,178.964056 389.110996,178.979272 389.495832,178.971699 C389.70366,178.971699 389.780604,178.941143 389.842199,178.887728 C389.949972,178.796161 389.873013,178.620677 389.803724,178.43755 C389.672894,178.12468 389.626724,177.773705 389.857602,177.598174 C389.822426,177.607534 389.786242,177.612664 389.749829,177.613452 C389.681526,177.611152 389.614004,177.598282 389.54971,177.575307 C389.257229,177.552394 388.957093,177.521885 388.641499,177.491383 C388.44138,177.354036 388.833917,177.239563 389.20335,177.170847 C388.78774,177.086922 388.418315,177.025864 388.095067,176.980085 C387.456325,176.865146 386.801929,176.865146 386.163187,176.980085 C384.762376,177.308186 385.062559,178.521451 381.091026,178.498585 C381.799109,177.827096 379.782576,177.216626 378.866664,177.361609 C381.137203,177.376879 379.951929,178.490949 377.873809,179.009813 C374.264046,178.483314 373.956162,179.39898 372.062797,179.337922 L374.217869,179.589742 C373.486673,180.268819 371.685663,180.177259 369.176529,180.390935 C369.10724,180.223039 369.299658,180.131472 369.576728,180.062825 C366.982942,180.459581 363.873482,178.689347 360.463847,179.345557 C360.430023,179.346911 360.396459,179.35202 360.363783,179.360788 C358.562733,178.902991 360.186784,178.094147 358.601256,177.781316 C354.244888,178.658798 353.883164,176.85038 349.295902,177.575284 C350.619762,178.490949 350.850655,178.269639 347.618027,179.154795 L355.1608,178.513816 L350.319579,179.833919 C352.597756,179.84915 355.122324,179.261633 356.48466,179.421846 C354.175645,180.162028 354.41424,179.933075 355.50716,180.688534 C352.389998,179.322644 349.334377,181.489719 345.740026,180.566418 L345.847799,178.307846 C343.559973,177.947531 341.228316,177.957835 338.943821,178.338355 L338.066432,178.452781 L337.627717,178.506204 L337.512243,178.521475 L337.335244,178.536753 L336.973473,178.567262 C336.026794,178.635955 335.064705,178.712237 334.071842,178.788526 C332.124551,178.918277 330.138784,179.009836 327.868293,178.994566 C327.860591,180.001791 327.829746,181.047168 327.775891,182.138318 L328.137662,179.261656 L328.422434,179.292166 C328.388621,179.342991 328.340432,179.382795 328.283903,179.406592 C328.611916,180.821642 328.720912,182.277924 328.607151,183.725472 C328.607151,183.855176 328.599441,183.992515 328.599441,184.129862 L328.599441,184.137498 C328.584086,184.854766 328.560974,185.602583 328.553264,186.35036 C328.553264,186.792945 328.560968,187.227887 328.576376,187.655185 C328.584086,187.868814 328.599441,188.074854 328.607151,188.280847 L328.630263,188.578447 L328.661029,188.784487 C327.899067,188.570796 327.621996,189.982474 327.152461,190.943919 C327.291039,190.913371 327.360289,191.218606 327.406466,191.699332 C327.452644,191.897729 327.475756,192.141867 327.529634,192.431832 C327.671057,193.225547 328.049039,193.959073 328.614852,194.537849 C328.497592,194.653525 328.365634,194.753567 328.222307,194.835449 C327.749486,194.660396 327.286957,194.45915 326.836906,194.232661 C326.36481,194.13389 325.873114,194.190124 325.436103,194.392867 C325.336039,194.438647 325.235976,194.49207 325.135912,194.545484 C325.056817,194.587859 324.970883,194.616258 324.881961,194.629409 C324.774189,194.659965 324.666416,194.690467 324.566368,194.720976 C324.143056,194.850727 323.74281,194.988066 323.350273,195.125413 C321.489612,195.888176 319.480706,196.229671 317.470019,196.125003 C319.109426,195.308533 316.631058,194.774391 320.286998,194.186874 C318.462875,194.179239 316.831186,194.041899 316.800411,194.560763 C316.601007,194.488663 316.388897,194.457513 316.176973,194.469203 C315.261068,194.476791 313.790968,194.827814 312.444043,194.988066 C311.798855,195.087747 311.141986,195.087747 310.496799,194.988066 C310.353414,194.965741 310.213646,194.924678 310.081142,194.865951 C309.999311,194.902079 309.919647,194.942852 309.842547,194.988066 C309.07527,195.678958 308.049646,196.016968 307.017851,195.918987 C306.968655,195.890302 306.934449,195.84185 306.92411,195.786204 C306.91377,195.730558 306.928316,195.673203 306.963973,195.629022 C306.556072,195.9419 303.96223,196.117384 305.617048,196.888075 C303.192551,195.873207 299.936866,195.766369 296.619585,195.812149 C292.270965,195.865572 287.829952,196.186085 285.059103,195.041512 C283.073384,195.163574 280.887498,195.293286 278.740135,195.392465 C277.670273,195.430609 276.608128,195.476436 275.592152,195.51458 C275.084196,195.529812 274.583886,195.545082 274.106696,195.56036 C273.567918,195.568003 273.052252,195.583227 272.559651,195.59087 C272.713593,195.476436 272.713593,195.38483 272.798246,195.331454 C272.986871,195.257414 273.194202,195.244045 273.390911,195.293239 C273.252371,195.278007 273.160017,195.255094 272.990664,195.247451 C272.821359,195.232228 272.652006,195.224585 272.490401,195.209314 C272.167083,195.194036 271.866971,195.186448 271.589853,195.178805 C271.116695,195.17663 270.64382,195.202103 270.173686,195.255094 C269.598286,195.310356 269.040376,195.481751 268.534279,195.758734 C267.749309,196.404792 266.767953,196.7703 265.748075,196.796461 C265.783711,197.617472 265.742476,198.439991 265.624899,199.253454 C265.317062,199.917307 265.124644,200.069925 264.993814,199.848653 C264.844789,199.395337 264.769435,198.921409 264.770575,198.444626 C264.701348,197.231407 264.724398,195.857929 264.493504,196.880385 C263.246643,196.33102 263.331295,199.245803 263.546826,202.435397 C263.654543,204.289602 263.79313,205.09843 263.816195,206.265869 C263.871198,207.329351 263.722329,208.393529 263.377473,209.402032 L263.231232,208.486367 C262.376915,211.370664 264.177966,215.529284 264.000903,220.244919 C264.000903,220.244919 263.777719,220.016013 263.623777,220.21441 C264.893751,223.442086 265.317062,229.546471 265.671084,234.07898 C264.693631,232.667372 265.155411,232.018742 264.162555,232.880992 C264.301086,234.918317 265.755776,232.28584 266.032847,236.345281 C265.501778,237.665337 265.03229,240.595421 263.970137,240.98458 L263.908549,237.154109 C262.538559,239.115105 263.962436,242.106286 263.723833,244.128332 L263.123467,243.868924 C263.315885,249.736767 264.824461,249.820691 264.716696,256.123473 L265.170821,255.474851 C266.671688,258.923846 264.33186,258.366838 265.447892,261.80057 L263.92396,262.845939 C264.293385,265.119806 265.394013,270.804529 265.678786,274.886813 C264.555092,272.574803 263.977838,267.805752 263.308231,264.852762 C263.300529,267.103762 263.42365,272.513745 264.170256,273.688873 C264.024016,272.780843 263.654543,271.636271 263.885484,270.735829 C265.078467,273.498111 265.663422,277.137813 265.64031,281.632177 C264.678221,281.372722 264.262618,282.532572 264.062491,284.333355 C264.05479,284.447828 264.039379,284.562308 264.031725,284.684369 C264.024016,284.852218 264.008613,285.027757 264.000903,285.203241 C263.985548,285.561898 263.970137,285.928144 263.947025,286.309668 C263.931661,287.072716 263.908549,287.881544 263.885484,288.70565 C263.846938,290.39196 263.808485,292.162233 263.770018,293.879091 C267.287418,293.993564 270.520046,294.245337 272.398047,295.031298 L273.029187,294.977884 L273.421677,294.932104 L274.175985,294.855815 C274.67625,294.810061 275.176524,294.771903 275.676805,294.741342 C276.677441,294.672711 277.677982,294.649774 278.686249,294.642139 C280.69508,294.634504 282.727024,294.718475 284.797443,294.832901 C288.938282,295.061808 293.240701,295.405187 297.912624,295.313628 C294.603052,293.047397 300.637295,295.25257 300.067696,292.917646 C302.222815,292.772664 303.054027,292.810855 303.254147,292.955861 L302.9386,292.88716 C303.054027,292.917669 303.146382,292.940583 303.269558,292.971084 L303.269558,292.963449 L309.857942,294.352198 C311.42035,295.031322 307.787523,294.863481 307.98765,295.389933 C312.751911,295.573106 309.988772,296.381958 313.136747,297 C312.490204,296.168259 314.791517,295.802013 317.508479,296.122479 L313.683171,295.046608 C320.340845,293.802833 319.440343,297.007651 326.144155,295.771464 L324.019896,296.511646 C327.468015,296.076707 336.719475,296.526924 340.098297,294.649806 C340.706387,294.916857 341.514511,295.557836 339.998241,295.725685 C348.226024,296.008061 358.308751,293.73414 364.704718,294.886355 L364.081287,295.458641 C365.612921,295.290793 366.752009,294.382762 368.676188,294.955048 C368.576124,295.19159 368.052757,295.527334 368.768542,295.557836 C369.576689,295.367074 372.840131,294.558246 374.879736,294.89399 L373.140266,295.534923 C378.189316,296.008061 381.760602,295.267879 385.393477,294.550611 C387.630285,294.06849 389.898839,293.744644 392.18198,293.581523 C392.166569,295.260236 398.477883,295.809679 401.63352,296.076707 L401.518054,296.313249 C405.264113,296.381852 409.010588,296.20085 412.732168,295.771464 C415.58767,295.458641 418.358463,295.061839 421.290908,294.73373 L421.298618,294.73373 C421.483326,294.710864 421.66809,294.68795 421.860508,294.665099 C422.537825,294.588771 423.230498,294.520117 423.930927,294.451408 C424.14641,294.428542 424.369594,294.405629 424.592833,294.382778 C425.070023,294.344584 425.55492,294.306424 426.047524,294.268297 C428.496649,294.932181 431.0207,295.285999 433.559474,295.32131 C439.578314,295.611274 447.1519,295.374733 452.878259,296.053856 C451.554399,295.748614 453.093742,294.741389 454.625375,294.57354 C456.526489,294.894006 459.789891,293.589173 459.920721,294.695609 C459.930171,294.779799 459.924974,294.864973 459.905358,294.947421 L459.220339,294.916872 L459.181863,294.916872 L459.189573,294.924508 C460.721206,296.427737 464.877408,296.030943 468.125447,296.06908 L468.656516,294.054614 C477.161377,296.984745 490.938512,292.978743 495.579613,295.603624 C497.634622,295.100038 500.174569,295.107611 502.206465,294.604034 L502.098747,295.679913 C507.274741,296.005526 512.464597,296.056471 517.646079,295.83253 L516.214501,296.610864 C520.178325,296.679495 521.217366,293.489979 524.881006,293.428968 L525.973926,295.038988 C532.893267,295.016075 539.889599,296.43538 546.72428,294.970295 C546.616507,295.206837 546.408694,295.672332 545.292702,295.740978 C548.440638,295.779123 557.276496,296.763482 556.783895,294.825313 C557.538156,295.916462 564.034186,294.72611 567.566997,294.123323 L566.989743,295.183978 C568.567562,294.504855 569.375693,294.069908 570.3455,293.76472 C570.896406,293.59213 571.459946,293.46202 572.031083,293.375553 C572.385082,293.322138 572.723756,293.268707 573.208656,293.222935 C573.793611,293.177156 574.455517,293.131376 575.202123,293.077953 C576.525936,293.207657 576.749176,293.795221 575.194422,293.711297 C576.351577,293.862489 577.526533,293.810831 578.665645,293.55868 C579.621707,293.257536 580.618011,293.100633 581.621139,293.093231 C581.616694,292.325902 581.657824,291.55898 581.744315,290.796444 C581.975209,291.681553 582.206086,292.62014 582.429334,293.612087 C582.516098,291.978853 582.446513,290.341142 582.221513,288.720928 C582.036796,287.744252 581.744315,287.019348 581.351778,285.668736 C581.321004,285.485609 581.297891,285.287212 581.282551,285.081218 C581.267141,284.890456 581.25173,284.699694 581.236319,284.493654 C581.220964,284.157918 581.213254,283.791664 581.220964,283.425371 C581.244975,282.665915 581.319532,281.908859 581.444148,281.15914 C581.682743,279.686467 582.106054,278.435057 582.590954,278.175594 C581.998336,277.694922 581.205553,275.756746 581.482624,273.666007 C581.852096,273.383685 582.082989,274.13909 582.190754,274.528249 C582.921903,268.599356 580.943893,265.707416 581.998336,261.632705 C582.324284,261.540632 582.570886,261.275522 582.637107,260.945993 C582.614042,265.264819 582.560156,268.805373 582.490866,269.087702 C583.468366,269.03428 583.645374,265.302964 585,268.309368 C584.253488,265.257176 582.637162,260.037955 583.098981,256.32956 Z M583.968708,248.431981 C584.122603,249.698669 583.90712,250.118338 583.683936,250.293822 C583.668525,249.698669 583.630049,248.996632 583.553059,248.080967 C583.514583,248.050457 583.468406,247.974176 583.422229,247.936031 C583.64422,248.052224 583.832391,248.222994 583.968708,248.431973 L583.968708,248.431981 Z M539.912727,73.8008138 C540.042213,73.8418731 540.166246,73.8982276 540.282152,73.9686625 L538.650455,73.9686625 C539.042992,73.9076436 539.458602,73.8542287 539.912727,73.800806 L539.912727,73.8008138 Z" id="Shape" fill="#215CFE" fill-rule="nonzero"></path>
                <path d="M390.6223,177.4413 C390.558982,177.510546 390.471333,177.552615 390.3777,177.5587 C390.452083,177.506144 390.534767,177.466458 390.6223,177.4413 Z" id="Path" fill="#7F77FF"></path>
                <path d="M371.38684,178.5225 C371.46303,178.51062 371.53774,178.4925 371.61316,178.4775 C371.53475,178.49079 371.45879,178.50584 371.38684,178.5225 Z" id="Path" fill="#7F77FF"></path>
                <path d="M583.69391,244.433605 C583.646182,244.290622 583.612692,244.145786 583.59365,244 C583.47183,244.214901 583.36911,244.419281 583.2845,244.627505 L583.7155,245 L583.69391,244.433605 Z" id="Path" fill="#7F77FF"></path>
                <path d="M458.402155,114.726235 C458.439846,114.564937 458.506123,114.411694 458.597845,114.273765 C458.531315,114.417765 458.488265,114.417765 458.433445,114.510295 L458.402155,114.726235 Z" id="Path" fill="#7F77FF"></path>
                <path d="M512.632742,71.673126 C513.083179,71.681805 513.592766,72.1992609 513.495436,76 L513.79585,71.3297764 L516,71.4143818 C514.220643,70.9830332 511.282749,70.4031766 515.34904,70.2995246 C513.948188,70.1693975 512.879309,70.0700566 512.125226,70 C511.791122,72.2395542 512.182296,71.6829253 512.632742,71.673126 Z" id="Path" fill="#7F77FF"></path>
                <path d="M514,90.6182975 C513.884681,89.973316 513.704699,89.9552168 513.518481,90.0309381 C513.33231,90.11302 513.13996,90.2775369 513,90.1971731 C513.451595,90.9612705 513.565299,91.3316218 514,90.6182975 Z" id="Path" fill="#7F77FF"></path>
                <path d="M438.710947,122 L439,121 C436.785908,121.143877 438.97883,121.387432 438.710947,122 Z" id="Path" fill="#7F77FF"></path>
                <polygon id="Path" fill="#7F77FF" points="403.663362 120.641 403.878469 120.624 404.276963 120.589 405.869944 120.452 407 120.273 404.84199 120.5 403.76249 120.613 402 120.727 403.329302 120.658"></polygon>
                <path d="M290,193.04909 L290.365914,194 C291.184319,193.829659 291.356013,192.760728 290,193.04909 Z" id="Path" fill="#7F77FF"></path>
                <path d="M263.917854,253 C262.965105,254.535946 262.781217,256.343306 263.409134,258 C263.515244,256.00531 264.116004,254.015793 263.917854,253 Z" id="Path" fill="#7F77FF"></path>
                <polygon id="Path" fill="#7F77FF" points="472 293.758 476 293.328 474.122133 293.242"></polygon>
                <path d="M485.95978,195.784682 C485.773727,204.982434 484.469164,214.125041 482.074017,223.016788 C472.748173,256.981118 447.232848,281.696216 433.482612,293 C430.944536,292.964916 428.42118,292.613378 425.972728,291.953771 C425.480261,291.991667 424.995497,292.029582 424.518439,292.067514 C424.295261,292.090233 424.072138,292.112999 423.856715,292.135703 C423.156478,292.203953 422.463996,292.272165 421.786865,292.348017 C421.5945,292.370736 421.409787,292.393502 421.22513,292.416205 L421.217423,292.416205 C416.769676,280.954979 413.578794,269.057931 411.699214,256.928032 L411.691562,256.920438 L411.691562,256.912899 C409.313905,241.356002 408.929175,223.100157 413.938369,204.859475 C416.084087,197.140281 419.052776,189.666456 422.794854,182.562824 C440.677082,148.371015 471.601667,128 471.601667,128 C471.601667,128 486.883139,158.924276 485.95978,195.784682 Z" id="Path" fill="#FFFFFF"></path>
                <path d="M391.57953,158 C391.55021,158.327851 391.52083,158.631131 391.47192,159 C391.376616,158.665757 391.414407,158.314573 391.57953,158 Z" id="Path" fill="#FFFFFF"></path>
                <path d="M371,178.65165 C371.275706,178.584953 371.545511,178.48335 371.805408,178.34835 C372.365346,178.53424 371.598284,178.52445 371,178.65165 Z" id="Path" fill="#FFFFFF"></path>
                <path d="M372,178.411945 L373,178.588055 C372.664162,178.572711 372.329697,178.513808 372,178.411945 Z" id="Path" fill="#FFFFFF"></path>
                <path d="M389.438098,175.558705 C389.383771,175.54334 389.328032,175.533496 389.271728,175.529325 C389.418508,175.509795 389.565288,175.480415 389.682728,175.470625 C389.702258,175.451095 389.712048,175.441295 389.721838,175.441295 C389.731628,175.441295 389.731638,175.451095 389.712048,175.470625 C389.712048,175.480415 389.702258,175.490205 389.692518,175.500005 C389.692488,175.519595 389.545708,175.539115 389.438098,175.558705 Z" id="Path" fill="#FFFFFF"></path>
                <path d="M390.6223,177.4413 C390.558982,177.510546 390.471333,177.552615 390.3777,177.5587 C390.452083,177.506144 390.534767,177.466458 390.6223,177.4413 Z" id="Path" fill="#FFFFFF"></path>
                <path d="M434.317137,258.292283 C434.317137,258.307508 434.30943,258.322741 434.30943,258.337973 C432.447939,270.392478 429.298468,282.21778 424.913869,293.615437 C424.690679,293.638236 424.467544,293.661081 424.25211,293.683864 C423.551836,293.752353 422.859318,293.820803 422.182151,293.89692 C421.989776,293.919719 421.805054,293.942564 421.620386,293.965347 L421.612679,293.965347 C418.680887,294.292482 415.91071,294.688106 413.055844,295 C399.443385,283.869805 373.372725,258.862846 363.931005,224.323366 C361.528499,215.399192 360.221208,206.221554 360.037337,196.988471 C359.897194,190.955675 360.151658,184.920231 360.799138,178.919895 C364.208014,178.265633 367.316765,180.03061 369.90999,179.635033 C369.632981,179.70346 369.440606,179.794771 369.50988,179.962168 C372.018455,179.749111 373.819049,179.840415 374.550097,179.163354 L372.395505,178.912282 C374.288449,178.973159 374.596264,178.060212 378.205223,178.585147 C380.282881,178.067825 381.46789,176.957063 379.197857,176.941838 C380.113566,176.797286 382.129649,177.40595 381.421724,178.075437 C385.392372,178.098236 385.092264,176.888573 386.492756,176.561446 L388.424206,176.561446 C388.747381,176.60709 389.116724,176.667975 389.532242,176.751642 C389.162891,176.820131 388.770441,176.934264 388.970516,177.071226 C389.286039,177.101638 389.586108,177.132056 389.878525,177.154902 C389.942804,177.177808 390.010311,177.19064 390.078599,177.192933 C390.115004,177.192147 390.15118,177.187033 390.186348,177.1777 C389.955506,177.35271 390.001681,177.702643 390.132482,178.014584 C390.201755,178.197167 390.27869,178.37213 390.170949,178.463425 C390.109375,178.516682 390.03244,178.547147 389.824658,178.547147 C389.439908,178.554713 388.924357,178.539527 388.208731,178.48627 C388.430929,178.805047 388.787712,179.006605 389.178306,179.034012 C389.417533,179.07602 389.659067,179.103977 389.901639,179.117734 C390.055547,179.1253 390.217116,179.1253 390.378723,179.117734 C391.021091,179.013225 391.678255,179.039102 392.310181,179.193789 C392.764158,178.790552 392.287074,178.356951 391.886964,177.953715 C391.522407,177.63935 391.201545,177.278656 390.932741,176.881031 C390.959882,176.912612 390.990902,176.94072 391.025083,176.964706 C391.325199,177.238577 391.332899,177.017962 391.486806,176.797309 C391.270703,176.742213 391.061606,176.663096 390.863514,176.56147 L391.425232,176.56147 L391.425232,175.344234 C391.448339,175.222527 391.463699,175.093162 391.486806,174.963843 C391.839833,172.990518 391.834615,170.970808 391.471399,168.999292 C391.84075,170.148078 392.579482,172.430424 393.048866,169.531847 C392.471741,164.792191 393.433616,168.428705 394.13389,165.750781 C393.933815,161.041537 392.494848,164.929123 393.064266,157.975563 C393.071965,157.222401 392.533308,157.922306 392.279351,158.675515 C392.694915,154.224916 392.156249,151.668698 392.641041,147.560459 C392.417859,149.104869 392.133142,149.903674 391.7561,147.583304 C392.302458,148.427754 392.425559,146.046507 392.633341,144 C392.810301,144.167397 392.994984,144.34236 393.179699,144.51733 C393.449008,144.776015 393.726017,145.042265 393.995366,145.30857 C403.58331,154.612919 414.825742,167.637496 423.190201,183.728071 C423.192244,183.728028 423.194215,183.728811 423.19566,183.730239 C423.197105,183.731668 423.197897,183.733617 423.197854,183.735636 C426.947201,190.859171 429.918832,198.357098 432.062512,206.102664 C437.064254,224.391832 436.687204,242.681062 434.317137,258.292283 Z" id="Path" fill="#FFFFFF"></path>
                <path d="M328.803305,189.064635 C328.668324,189.396353 328.461095,189.69381 328.196695,189.935365 C328.490265,189.289655 328.656575,189.093955 328.803305,189.064635 Z" id="Path" fill="#3F3D56"></path>
                <path d="M309.539145,193.446195 C309.533354,193.493167 309.503764,193.533838 309.460855,193.553805 C309.499965,193.495105 309.539145,193.446195 309.539145,193.446195 Z" id="Path" fill="#3F3D56"></path>
                <path d="M423,293.340519 C422.807952,293.363346 422.623544,293.386221 422.439191,293.409033 L422.431497,293.409033 C419.504693,293.736587 416.73923,294.132718 413.889223,294.445012 C410.174803,294.87367 406.435535,295.054366 402.696683,294.985879 L402.811928,294.749738 C399.662362,294.483138 393.363191,293.934649 393.378572,292.258776 C391.099823,292.421621 388.835634,292.744919 386.603129,293.226224 C369.987158,287.863468 350.636433,278.783294 334.804035,263.502455 C312.488065,241.967626 302.417096,213.196052 298,194.654872 C301.310899,194.60917 304.560328,194.715827 306.980152,195.728977 C305.328518,194.95959 307.91737,194.784403 308.324485,194.472055 C308.288897,194.516161 308.27438,194.573419 308.284699,194.628971 C308.295019,194.684523 308.329159,194.732893 308.37826,194.761529 C309.408062,194.859346 310.431705,194.521917 311.197506,193.832207 L317.519776,193.832207 L317.519776,193.314222 C317.731293,193.302551 317.942995,193.33365 318.142015,193.405627 C318.172723,192.887641 319.801281,193.024748 321.621894,193.03237 C317.972988,193.618894 320.446587,194.152131 318.810335,194.96722 C320.817153,195.071711 322.822195,194.730793 324.679275,193.969322 C325.071065,193.832207 325.470534,193.6951 325.893031,193.565569 C325.992902,193.535111 326.10046,193.504661 326.208017,193.474157 C326.296768,193.461028 326.382536,193.432677 326.461479,193.390374 C326.56135,193.33705 326.661221,193.28371 326.761093,193.238015 C327.197263,193.035615 327.688013,192.979476 328.159201,193.07808 C328.608386,193.304186 329.070025,193.505091 329.541936,193.679848 C329.684987,193.598104 329.816692,193.498232 329.933726,193.382752 C329.369001,192.804955 328.991747,192.07267 328.850596,191.280299 C328.796821,190.990825 328.773754,190.7471 328.727665,190.549038 C328.681577,190.069125 328.61246,189.764407 328.474148,189.794904 C328.942781,188.835085 329.219318,187.425804 329.979814,187.639126 L329.949107,187.433434 L329.92604,187.136338 C329.918345,186.930693 329.903019,186.725002 329.895325,186.511735 C329.879951,186.085107 329.872262,185.650902 329.872257,185.209118 C329.879951,184.462606 329.903019,183.716055 329.918345,183 C340.734657,186.272305 351.147154,190.736125 360.960958,196.307917 C369.306958,201.052148 377.029501,206.801299 383.952894,213.424572 C397.811041,226.801019 406.944839,242.965524 412.921384,257.736 L412.921384,257.743576 L412.929024,257.751206 C417.561234,269.222566 420.937588,281.154093 423,293.340519 Z" id="Path" fill="#3F3D56"></path>
                <path d="M458.475545,293.495088 L458.524455,293.495088 C458.512576,293.501908 458.499036,293.505297 458.485345,293.504878 L458.475545,293.495088 Z" id="Path" fill="#3F3D56"></path>
                <path d="M552,177 C552,177 547.644121,229.681796 512.014841,263.946929 C496.063736,279.287838 476.54662,288.340875 459.859288,293.651494 C459.728933,292.552993 456.477364,293.848468 454.583144,293.5303 C453.057065,293.696945 451.523304,294.696946 452.842363,295 C447.13677,294.325747 439.590647,294.560592 433.593632,294.272707 C431.064064,294.237649 428.549166,293.886369 426.108921,293.227246 C425.618104,293.265115 425.134966,293.303001 424.659506,293.340906 C424.437076,293.363609 424.214701,293.386358 424,293.409045 C426.066123,281.342771 429.428718,269.528516 434.030764,258.166612 C440.012416,243.492369 449.130635,227.431802 462.942165,214.151494 C469.852731,207.563393 477.562258,201.845684 485.894888,197.128789 C517.812455,178.840907 552,177 552,177 Z" id="Path" fill="#3F3D56"></path>
                <path d="M48.9625253,146 C48.9625253,146 38.3718358,167.079826 22.0044109,171.870716 C5.63698603,176.661605 61.4787932,171.870716 61.4787932,171.870716 C61.4787932,171.870716 58.5904255,156.539936 62.4415825,154.62359 C66.2927394,152.707244 48.9625253,146 48.9625253,146 Z" id="Path" fill="#A0616A"></path>
                <path d="M31.5857877,108.846414 C30.9504337,103.8943 33.978153,99.5160247 38.3484696,99.0673558 C38.3979846,99.0622637 38.4467881,99.0647407 38.4962688,99.060707 C37.9499659,98.9888574 37.3955483,98.9807477 36.8469116,99.036581 C32.4766292,99.4852499 29.4488756,103.863518 30.0842297,108.81564 C30.7123999,113.711588 34.6866222,117.32847 39,116.976327 C35.300382,116.495649 32.1401998,113.167243 31.5857877,108.846414 Z" id="Path" fill="#2F2E41"></path>
                <path d="M37.0223926,115.290036 C32.3961392,113.769235 29.6483466,109.662099 30.8851242,106.116443 C30.8991235,106.076276 30.9195701,106.039714 30.9345012,106 C30.6665339,106.391285 30.4520123,106.81468 30.296312,107.259575 C29.059542,110.805223 31.8073345,114.912367 36.433588,116.433168 C41.0073684,117.936665 45.6989745,116.345869 47,112.883215 C45.1904235,115.535534 41.0589096,116.616914 37.0223926,115.290036 Z" id="Path" fill="#2F2E41"></path>
                <path d="M3,209.31559 L4.42609118,250.058441 L26.7404399,302.002688 C26.7404399,302.002688 20.9193017,328.936749 32.5615702,327.974835 C44.2038388,327.012921 33.5317586,301.040782 33.5317586,301.040782 L22.8596863,246.210745 L20.9193017,201 L3,209.31559 Z" id="Path" fill="#A0616A"></path>
                <circle id="Oval" fill="#A0616A" cx="65.5" cy="138.5" r="21.5"></circle>
                <path d="M85,176.226849 L63.5977443,168 C63.5977443,168 59.3341348,168.628347 47.4883503,169.578159 C35.6425658,170.527971 30.3827723,169.63208 30.3827723,169.63208 C30.3827723,169.63208 5.04096037,178.126472 6.02810842,182.875531 C7.01525646,187.62459 17.873893,262.659764 22.8096412,258.860517 C27.7453894,255.06127 30.7068255,254.111458 30.7068255,254.111458 L85,249.362392 L85,176.226849 Z" id="Path" fill="#CFCCE0"></path>
                <path d="M9.37500284,180 L6.32405995,180 C6.32405995,180 2.81249858,181.937499 2.81249858,187.750004 C2.81249858,193.562509 0,211 0,211 L15,211 L9.37500284,180 Z" id="Path" fill="#CFCCE0"></path>
                <path d="M38.667638,191.143038 L26.9251282,172.335138 C26.3790686,171.460512 25.3690442,170.9816 24.3396117,171.109193 L21.2775076,171.488709 C20.5156544,171.583133 19.8323869,172.000095 19.4041238,172.631937 C18.9758608,173.263778 18.8445827,174.048562 19.0441856,174.783659 L25.0567844,196.926823 C25.0567844,196.926823 34.5635864,236.044417 25.4352606,256.972093 L25.0567844,266.332201 C25.0567844,266.332201 16.3069348,295.251101 18.2513066,317.422262 C20.1956784,339.593422 21.1679231,358.872686 21.1679231,358.872686 C21.1679231,358.872686 16.3068956,373.332136 18.2513066,378.151943 C18.8346299,379.597883 18.7179668,381.737883 18.2688068,384.025374 C15.5272242,397.987743 14.8194529,412.268041 15.2070481,426.487382 L15.3346822,431.169929 C15.3346822,431.169929 8.52920439,436.953706 14.3624767,437.917669 C20.195749,438.881632 38.6676301,440.809565 38.6676301,440.809565 C38.6676301,440.809565 42.55646,434.061786 40.6120412,433.097855 L46.4452821,401.287066 C46.4452821,401.287066 56.167345,387.791579 55.1951395,379.115906 C55.1951395,379.115906 58.111756,364.656455 55.1951395,357.908708 L56.167345,315.49432 L60.0561671,366.584381 L54.222934,430.205966 C54.222934,430.205966 46.4452821,435.989743 51.3063096,437.917669 C56.1673372,439.845595 86.3057315,449.485231 86.3057315,444.665448 C86.3057315,439.845665 84.3613205,437.917669 84.3613205,437.917669 L97,307.78261 L90.1945222,253.800661 C90.1945222,253.800661 44.500824,249.944809 48.3896617,198.854749 C48.3896617,198.854749 59.5687341,175.833556 70.6043673,171.48958 C70.86148,171.394974 71.0282343,171.147336 71.0178006,170.875612 C71.007367,170.603887 70.8221054,170.369537 70.5584821,170.294589 L66.0782616,169.025381 C65.9562462,168.989339 65.8259568,168.991735 65.7053729,169.032236 C63.7612914,169.684939 46.9055857,175.714404 38.667638,191.143038 Z" id="Path" fill="#2F2E41"></path>
                <path d="M60.8114992,435.000054 L60.6571636,436.380171 C59.6180225,445.174696 56.7403644,453.656337 52.2087665,461.281067 C50.0454079,464.975526 48.3890897,469.148586 49.2172488,472.440006 C51.1496226,480.120004 50.1834357,483 50.1834357,483 L65.6424336,483 L65.6424336,480.120004 L74.2733444,482.45881 C76.1979142,483.010863 78.2483901,482.948316 80.1352525,482.279999 C82.0676262,481.560006 84,480.120004 84,477.239976 C84,474.839976 82.154851,472.606643 80.0022005,470.81776 C75.4636886,467.119345 72.175702,462.127102 70.5816034,456.514201 L70.4733992,456.119988 L76.2705205,435 L60.8114992,435.000054 Z" id="Path" fill="#2F2E41"></path>
                <path d="M20.8114988,435 L20.6571631,436.380118 C19.6180283,445.174652 16.7403725,453.656301 12.2087737,461.281039 C10.045415,464.975501 8.38908906,469.148565 9.21724815,472.439996 C11.1496297,480.120001 10.1834428,483 10.1834428,483 L25.6424411,483 L25.6424411,480.120001 L34.273352,482.458809 C36.1979202,483.010855 38.2483912,482.948308 40.1352524,482.279998 C42.0676262,481.559997 44,480.120001 44,477.239971 C44,474.839976 42.1548509,472.60664 40.0022004,470.817748 C35.4636896,467.119329 32.1757031,462.127081 30.5816032,456.514175 L30.473399,456.11997 L36.2705204,435 L20.8114988,435 Z" id="Path" fill="#2F2E41"></path>
                <path d="M70.2022595,142.741134 C70.2022595,142.741134 85.3940405,133.998156 91.2769242,133.468224 C91.2769242,133.468224 92.989931,129.626674 91.1427147,125.930238 C91.1427147,125.930238 90.2464263,114.071317 75.3867918,114.531967 C75.3867918,114.531967 57.8359421,105.060923 51.9439467,108.927758 C46.0519512,112.794593 32.9326277,131.349428 38.4742609,142.438706 C38.4742609,142.438706 32.0681486,145.649518 31.7633139,143.921144 C31.4584792,142.19277 26.6993895,146.835473 32.9826217,150.834608 C32.9826217,150.834608 24.1878489,159.703671 32.7369082,165.254565 C32.7369082,165.254565 32.3456403,157.388571 37.3049159,155.010422 C42.2641915,152.632272 37.9236893,155.130266 37.9236893,155.130266 C37.9236893,155.130266 29.4337591,165.727695 42.1140307,169.852945 C42.1140307,169.852945 37.3822529,164.484945 42.1413426,159.84225 C42.1413426,159.84225 40.667194,170.685615 49.4346238,171.827255 C49.4346238,171.827255 44.9121358,165.386897 47.2916923,163.065549 C47.2916923,163.065549 48.3017413,171.051388 53.251913,172.010142 L56.9645456,172.729207 L58.2203003,166.295089 C58.2203003,166.295089 54.6896457,174.514375 62.9429742,175 C62.9429742,175 58.9527953,162.541858 64.2351447,155.218283 C69.517494,147.894708 70.2022595,142.741134 70.2022595,142.741134 Z" id="Path" fill="#2F2E41"></path>
                <ellipse id="Oval" fill="#2F2E41" transform="translate(40.861071, 110.911693) rotate(-52.860290) translate(-40.861071, -110.911693) " cx="40.861071" cy="110.911693" rx="9.18347329" ry="7.27005024"></ellipse>
                <path d="M49,110 C47.0584958,110.772602 45.369153,112.114834 44.1329725,113.866995 C43.0333495,115.369192 42.3009931,117.13161 42,119 C43.9415034,118.227392 45.6308474,116.885162 46.8670354,115.133005 C47.9666411,113.630799 48.6989932,111.868385 49,110 Z" id="Path" fill="#215CFE"></path>
                <path d="M124.21538,295 L123,293.352315 L131.822412,286.635977 C133.953585,285.008973 135.067384,282.349699 134.743578,279.661487 L130.373068,243.806772 C129.734079,238.508575 131.929088,233.267077 136.129643,230.060555 L145.745785,222.739963 C149.544276,219.855141 154.92454,220.638263 157.772883,224.490563 L160,227.509868 L158.378116,228.744575 L156.150999,225.72523 C153.974634,222.781646 149.863548,222.183262 146.961164,224.387617 L137.345015,231.708201 C133.725351,234.471312 131.833825,238.987928 132.384301,243.55347 L136.754579,279.408366 C137.167136,282.829164 135.749906,286.213347 133.037792,288.28363 L124.21538,295 Z" id="Path" fill="#CFCCE0"></path>
                <polygon id="Path" fill="#CFCCE0" points="126.722821 295.892099 134 286.288018 131.540152 283 120.629463 287.743704 73 320.724895 81.4313072 332"></polygon>
                <path d="M176.694141,216.962296 L185.028024,217.002603 C189.01693,217.021896 192.245818,220.25074 192.265165,224.239645 L192.593974,292.031082 C192.613455,296.04747 189.373321,299.319189 185.356932,299.338669 C185.333451,299.338783 185.309968,299.338783 185.286486,299.33867 L176.952604,299.298362 C172.963698,299.27907 169.73481,296.050226 169.715462,292.06132 L169.386654,224.269883 C169.367173,220.253495 172.607307,216.981777 176.623695,216.962296 C176.647177,216.962182 176.67066,216.962182 176.694141,216.962296 Z" id="Rectangle" fill="#E6E6E6" transform="translate(180.990314, 258.150483) rotate(-36.846430) translate(-180.990314, -258.150483) "></path>
                <path d="M209.918848,280.099708 L208.664141,278.349966 L208.413206,278 C209.27377,279.200098 209.642891,280.708294 209.439366,282.192801 C209.235841,283.677308 208.476342,285.016523 207.327951,285.915833 L198.574765,292.770492 C196.183358,294.6432 192.792022,294.135423 191,291.636339 L191.250942,291.986305 L192.505649,293.736039 C194.297685,296.235101 197.689009,296.74286 200.080407,294.870154 L208.833593,288.015494 C211.224965,286.142782 211.710849,282.598775 209.918848,280.099708 Z" id="Path" fill="#000000" opacity="0.2"></path>
                <path d="M184.59555,241.573571 C184.49314,241.473171 184.40708,241.392111 184.40445,241.436571 C184.50223,241.554161 184.56693,241.585411 184.59555,241.573571 Z" id="Path" fill="#7F77FF"></path>
                <path d="M181.5515,240.5875 C181.541145,240.518022 181.504216,240.455279 181.4485,240.4125 L181.5515,240.5875 Z" id="Path" fill="#7F77FF"></path>
                <path d="M193.396129,254.254425 C193.287309,254.289095 193.496659,254.522185 193.634129,254.745575 L193.396129,254.254425 Z" id="Path" fill="#7F77FF"></path>
                <path d="M196.35657,259.42114 L196.45465,259.55121 C196.516415,259.567113 196.579699,259.576382 196.64343,259.57886 L196.35657,259.42114 Z" id="Path" fill="#7F77FF"></path>
                <path d="M199.263645,263.463931 C199.397759,263.464184 199.525949,263.519215 199.618505,263.616271 C199.674596,263.571396 199.715701,263.510511 199.736355,263.441711 C199.654085,263.311581 199.397185,263.437371 199.263645,263.463931 Z" id="Path" fill="#7F77FF"></path>
                <path d="M210.498865,277.39569 L210.444245,277.49109 C210.477254,277.532714 210.514638,277.570672 210.555755,277.60431 L210.498865,277.39569 Z" id="Path" fill="#7F77FF"></path>
                <path d="M180.458088,236.457711 L180.470418,236.483171 C180.594868,236.595901 180.534438,236.524551 180.458088,236.457711 Z" id="Path" fill="#7F77FF"></path>
                <path d="M153.241033,244.663557 C153.051213,243.991377 154.135203,245.318957 153.770273,244.366257 C153.736933,244.505417 152.884583,243.915577 153.241033,244.663557 Z" id="Path" fill="#7F77FF"></path>
                <path d="M173.503434,226.404205 C173.485051,226.466385 173.48158,226.532023 173.493304,226.595795 C173.513384,226.574555 173.521564,226.526825 173.503434,226.404205 Z" id="Path" fill="#7F77FF"></path>
                <path d="M168.706755,225.31366 C168.54816,225.412716 168.408197,225.53886 168.293245,225.68634 C168.319487,225.681287 168.344885,225.672554 168.368685,225.6604 C168.448247,225.516598 168.565014,225.396837 168.706755,225.31366 Z" id="Path" fill="#7F77FF"></path>
                <path d="M166.37799,226.580905 C166.417627,226.573531 166.456813,226.563912 166.49536,226.552095 L166.62201,226.419095 L166.37799,226.580905 Z" id="Path" fill="#7F77FF"></path>
                <path d="M209.94532,277.514216 C209.822703,277.658549 209.582797,277.84626 209.4748,277.783421 L209.68817,277.411739 C209.672783,277.394403 209.65893,277.375003 209.644468,277.356462 C209.657903,277.33898 209.671914,277.322536 209.685372,277.305024 L206.616268,273.326162 L206.696242,273.330937 L206.555157,273.246924 L206.166058,272.742439 C206.215496,272.73199 206.278875,272.746984 206.37124,272.83578 C206.213086,272.36757 206.02261,272.573215 205.920003,272.146724 C205.915324,272.094902 205.940304,272.101697 205.976111,272.126855 L205.616148,271.818948 C205.726603,271.850249 205.75506,271.622984 205.890012,271.874901 C205.536411,271.109271 204.877786,270.962066 204.88685,270.570307 L204.945266,270.6133 C204.354642,269.982108 204.50084,270.323757 204.298044,270.320663 L203.970292,269.895754 L204.054218,269.343615 L203.792263,269.394739 C203.726861,269.295816 203.59827,269.099806 203.70192,269.077926 C203.300572,268.825119 203.663869,269.198537 203.382806,269.086831 C203.21053,268.507423 202.340581,267.902142 202.56963,267.576524 C202.298026,267.521247 202.78948,268.090567 202.315728,267.682985 C202.540596,267.3047 201.829394,267.167168 201.663132,266.644365 C201.931551,266.646668 202.142424,267.103155 201.976501,266.579653 C201.496024,266.540944 201.42042,265.73054 201.096943,265.42304 C200.854563,265.573969 200.417716,264.736556 199.890953,264.208693 C199.578549,263.58953 199.225659,262.990435 198.834448,262.415084 L198.88538,262.403039 C198.572059,262.467006 198.183876,261.874946 197.821352,261.50218 C197.972655,261.417039 198.084082,261.450497 198.316663,261.626077 L198.019929,261.243523 C197.82279,261.174361 197.650976,261.050338 197.525922,260.886927 L197.773795,260.856985 C197.248739,260.370743 196.783181,259.827275 196.386353,259.23736 C196.25709,259.29233 196.276088,259.656043 196.103606,259.696994 L195.835574,259.349541 C195.916967,259.316223 196.011203,259.338168 196.068203,259.403712 C196.010759,259.352635 195.831813,259.244484 195.776732,259.097387 L196.13788,259.26744 C195.971926,258.921384 195.894204,259.200708 195.723555,258.951656 C195.852091,258.865485 195.676187,258.709866 195.801735,258.672047 C195.860871,258.724253 195.911036,258.918106 196.03061,258.973958 C195.848636,258.723117 195.728432,258.435004 195.679277,258.131862 C195.626409,258.2071 195.511134,258.254301 195.342698,258.068693 C194.939998,257.565106 195.358179,257.784686 195.192841,257.440319 C195.010805,257.379922 194.849561,256.988976 194.656255,257.116336 C194.542039,256.966336 194.607828,256.875337 194.613811,256.780921 C194.327832,256.576758 193.638916,255.564563 193.669926,256.006762 L193.709043,256.083988 L193.66761,256.046784 C192.814407,255.316393 192.386482,254.171826 191.644074,253.371287 L191.70769,253.327104 C191.298368,252.834925 190.850711,252.374038 190.368675,251.948516 C190.251907,251.796743 190.206617,251.507722 190.331059,251.518356 C189.995446,251.249402 189.72651,250.910454 189.544222,250.526682 C189.9571,250.841391 189.535877,250.320554 189.935495,250.872362 C189.5966,250.323978 189.607696,250.135837 189.015246,249.713407 C189.318706,249.783087 188.921048,249.183433 188.686499,248.976176 L188.847309,249.416271 C188.637077,249.178307 188.444755,248.925945 188.271834,248.661144 L188.583086,248.638704 C188.035349,247.41033 186.698074,247.07662 186.514686,245.971506 C186.154913,245.802997 186.847646,246.612855 186.48536,246.491684 C186.26548,246.050924 186.084924,245.592653 185.945676,245.12191 C185.555802,244.380556 185.165738,244.733122 184.71548,243.988068 C184.708368,244.130421 184.571985,244.359328 184.105227,243.897345 C183.762966,243.397412 183.965256,243.078588 184.259043,243.337575 C184.354063,243.447975 184.373022,243.520887 184.343885,243.534476 C184.490612,243.669666 184.67969,243.849507 184.61462,243.600355 L184.491529,243.592769 C184.384552,243.299058 183.867533,242.645003 184.11015,242.710414 C183.759101,242.399981 183.867541,242.645003 184.035723,242.941809 C183.669921,242.247455 183.297559,241.978303 182.882214,241.29195 C182.918487,241.422733 182.9019,241.579666 182.825316,241.47887 C182.201849,240.482352 182.367535,241.173535 181.849165,240.568123 C181.687778,240.127276 182.221147,240.497415 181.636585,239.933699 C181.415676,239.490464 181.772557,239.706811 181.952325,239.816037 C181.53085,239.384999 181.202875,238.876043 180.987893,238.319418 L181.282889,238.579349 C181.131562,238.440927 180.995309,238.287734 180.876285,238.122195 L180.860077,238.405027 C180.74865,238.207474 180.632482,238.055978 180.697623,238.013806 C180.457385,237.901441 180.556586,238.336384 180.140578,238.069198 C180.0333,237.775717 179.499741,237.40408 179.635476,237.176862 C180.145193,237.97459 179.77178,236.948522 180.29256,237.558671 C180.153503,237.42676 180.037392,237.273809 179.94875,237.105777 C179.950291,237.062715 180.009521,237.101094 180.058596,237.141577 C179.684203,236.29578 179.579391,236.976353 179.011503,236.230738 C179.196471,236.243298 179.091715,235.903684 178.974314,235.80004 C179.202794,236.100822 178.89743,236.079456 178.599731,235.867654 C178.320075,235.328076 178.13577,235.397709 177.953687,235.141064 L178.132056,235.455389 C177.945444,235.440725 177.776574,235.192095 177.48534,234.886061 C177.550845,234.794025 177.777925,235.143497 177.725065,234.997114 C177.243592,234.772375 177.287262,234.016035 176.758176,233.599179 C176.650566,233.305905 176.951299,233.4226 176.841619,233.176158 C176.252007,232.706451 176.514547,232.440762 175.927543,231.923217 C175.911192,232.207371 175.971576,232.211025 175.495848,231.892055 L176.369313,232.809496 L175.657527,232.330838 C175.886931,232.632603 176.240967,232.895344 176.354069,233.093834 C175.996374,232.879268 176.058014,232.883206 176.043639,233.118064 C175.953107,232.542494 175.283576,232.399673 175.070143,231.813516 L175.454849,231.556118 C175.070784,230.720955 174.284848,230.427243 173.663752,229.431923 L173.828655,229.777035 C173.584402,229.760728 173.366535,229.219791 173.074748,228.963429 C173.221191,228.900406 173.121879,228.679744 173.1007,228.495074 C173.020094,228.578058 172.585807,227.810425 172.271521,227.907758 L172.116733,227.374183 C171.642578,226.623133 171.0051,226.653121 170.386406,225.765053 C170.516586,225.796407 170.513409,225.678837 170.536848,225.605549 C170.563424,225.536338 170.618648,225.513989 170.94297,225.836184 C170.648994,225.452555 170.383949,225.062738 170.360454,225.207295 C170.339388,225.159722 170.312732,225.114675 170.281017,225.073049 L170.226079,225.004214 C170.206204,224.984061 170.180244,225.041741 170.155746,225.060205 L169.822257,225.459211 C169.658757,225.702177 169.445749,225.91002 169.196372,226.06992 C169.086644,226.267227 169.122237,226.455422 168.800855,226.742899 C168.745537,226.752511 168.753297,226.683531 168.753297,226.683531 C168.767672,226.777486 168.407512,227.145652 168.74447,227.066415 C167.725036,227.361815 166.837268,228.861198 165.937424,229.091649 C165.47404,229.564872 164.900833,230.120948 164.443922,230.51217 C164.443052,230.452985 164.39472,230.453646 164.492491,230.392588 C163.762474,230.817037 164.394048,231.054558 163.552273,231.529378 C163.015292,231.644607 163.855566,231.111961 163.560175,231.230047 C163.130559,230.928604 162.720525,232.001388 162.026394,232.160616 L162.12855,232.043375 C161.640771,232.211271 161.31543,232.916073 160.654346,233.361044 C160.654346,233.361044 160.657673,233.302934 160.611032,233.298389 C160.157192,233.943435 159.600596,234.51422 158.962118,234.989337 C159.041752,234.695295 159.186599,234.708085 158.948036,234.629362 C158.682556,234.84663 159.222382,234.830715 158.68989,235.265613 C158.442689,235.305581 157.980419,235.50923 157.800699,235.368136 L158.326782,234.996876 C157.896091,234.962673 157.642062,235.470567 157.330036,235.617972 L157.297146,235.495134 C156.499459,236.071495 156.651504,236.321768 155.739245,236.871941 L155.882504,236.890075 C155.5508,237.450129 155.373205,236.999953 154.995968,237.488408 L154.68293,237.319507 C154.1856,237.789836 153.655584,238.226402 153.096628,238.626119 C153.467485,238.177807 153.879464,237.763124 154.327496,237.387175 C153.876694,237.61094 153.469282,237.90901 153.123394,238.268118 C153.242534,238.168312 153.371607,238.008332 153.527066,237.97469 C153.156529,238.486168 152.655943,238.895688 152.074073,239.163356 C152.018075,238.861813 151.35342,239.153844 150.548787,239.536021 L150.244916,239.680624 L150.089939,239.754104 C150.040018,239.779124 149.958645,239.797166 150.024916,239.848005 C150.148781,240.020023 150.267873,240.190353 150.37263,240.352905 C150.55925,240.607289 150.692001,240.895152 150.763176,241.199784 C150.933247,241.387548 151.101486,241.573339 151.269629,241.758947 C151.381719,241.883642 151.488531,242.012406 151.591825,242.144594 C151.798415,242.409025 151.990716,242.687221 152.182591,242.974276 C152.566286,243.548441 152.94806,244.158121 153.437822,244.763954 C153.477177,244.052634 153.726069,245.116052 154.054295,244.758941 C154.297055,245.024062 154.375575,245.137932 154.372635,245.18329 L154.342969,245.112812 L154.37288,245.188211 L154.373987,245.187443 L154.813536,246.224198 C154.860035,246.512374 154.517671,246.013194 154.451258,246.102781 C154.906447,246.752951 154.490716,246.48588 154.708882,246.976561 C154.781428,246.790624 155.075562,247.05097 155.299119,247.447727 L155.088238,246.813303 C155.971637,247.541958 155.349427,247.808907 156.236247,248.546 L155.898562,248.354535 C156.320844,248.756673 157.189054,250.032592 157.843246,250.251841 C157.860632,250.364698 157.836782,250.547895 157.654556,250.368237 C158.445605,251.488114 159.849666,252.544876 160.309375,253.528158 L160.151323,253.514569 C160.3349,253.697221 160.601051,253.737849 160.701525,254.06085 C160.652276,254.076166 160.544184,254.04796 160.610993,254.145799 C160.902319,254.33833 161.151376,254.585162 161.343705,254.871968 L161.060381,254.719956 C161.753596,255.869353 162.573371,256.156923 163.323358,256.99799 C163.04322,257.198368 163.595682,258.097668 163.871434,258.546507 L163.820858,258.560657 C164.695379,259.618861 165.643285,260.617794 166.657958,261.550479 C166.902693,262.479436 168.384096,264.044252 169.093464,265.307143 C169.009697,265.096016 169.332272,265.17758 169.516474,265.359809 C169.666386,265.668231 170.279769,265.958434 169.99172,266.101916 L169.923133,266.002993 C169.828112,266.386814 170.318744,266.887829 170.642774,267.321959 L171.031344,267.14961 C171.411332,268.625616 173.478183,269.960481 173.515618,270.88983 C173.808013,271.099751 174.065764,271.436149 174.356374,271.643744 L174.166095,271.759625 C174.638988,272.481882 175.159367,273.173737 175.723988,273.830877 L175.450068,273.734911 C175.84221,274.266474 176.47595,274.01974 176.858728,274.494721 L176.703513,274.834497 C177.411727,275.744207 177.889692,276.839048 178.827863,277.564487 C178.777366,277.578168 178.679295,277.607595 178.554481,277.467676 C178.878993,277.902428 179.655556,279.261469 179.902078,278.83834 C179.671425,279.022911 180.605179,279.797116 181.090745,280.21345 L180.855367,280.264996 C181.298128,280.407256 181.689717,280.669679 181.983856,281.021251 C182.067149,281.175696 181.935808,281.244662 181.839824,281.028929 C182.101447,281.554964 182.282519,281.264953 182.617786,281.889558 L182.345313,281.76421 C182.494678,282.038627 182.752206,282.242469 183.059027,282.329139 C183.358701,282.574491 183.705356,283.257036 183.599777,283.442782 C183.879626,283.489115 184.119398,283.663506 184.24398,283.911322 C184.212726,283.992701 184.097253,283.918592 184.039714,283.880912 C184.528655,284.757594 185.150028,284.905528 185.395703,285.574385 C185.352551,285.619713 185.339226,285.684729 185.361217,285.742657 C184.881869,285.112348 184.501889,284.600385 184.551201,284.638342 C184.388756,284.756611 184.750987,285.283913 184.215737,285.044273 C184.814812,285.401147 185.338481,285.865552 185.75878,286.412688 C185.763756,286.448139 185.761774,286.484185 185.75294,286.51892 L185.695306,286.481055 C185.762334,286.595714 185.853265,286.695515 185.962279,286.774068 C186.038365,286.929113 186.127499,287.077791 186.22877,287.218586 C186.139534,287.374812 186.604412,287.852204 186.792762,288.109509 C186.954394,287.959233 187.180898,288.310717 187.08877,287.894007 C187.106859,287.943487 187.030654,287.861816 186.893718,287.69921 C186.863152,287.664628 186.82916,287.63305 186.792233,287.604932 L186.821125,287.61079 L186.324945,286.991598 C186.606546,287.114744 186.822997,287.345793 186.922752,287.629722 C187.137007,287.676208 187.364507,287.733366 187.481631,287.77358 C187.500305,288.299754 187.880237,289.063594 187.798912,289.267589 C188.146199,289.616907 188.513013,290.059122 188.881471,290.444309 C189.059265,290.631618 189.247581,290.809236 189.445558,290.976348 C189.628756,291.167802 189.848647,291.322689 190.092906,291.432328 C190.193469,291.524757 190.26429,291.643529 190.296793,291.774261 C190.328095,291.886534 190.377921,291.875517 190.43561,291.906725 C190.37963,291.939824 190.319462,291.965722 190.256616,291.983767 L190.139026,291.858512 C190.082513,291.789844 190.014203,291.731187 189.937115,291.685134 C190.093586,291.786253 190.199702,292.15845 190.504394,291.9236 L191.290354,291.613067 C191.473087,291.546792 191.647698,291.461051 191.810992,291.357412 C191.924244,291.280938 191.996932,291.204633 192.003104,291.126632 C192.718407,290.987741 191.721132,291.516172 192.625512,291.116789 L192.533383,291.245653 C194.552779,290.950844 195.142438,289.395624 197.288639,288.890678 C197.13928,288.929709 197.065557,288.950277 197.014862,288.923191 C199.317533,287.981144 201.139751,286.092559 203.241524,284.882519 C203.828235,284.514353 203.750339,284.316654 203.967969,283.943897 L204.238901,284.017699 L204.582324,283.351552 C205.165076,282.529371 206.25979,282.556641 206.866962,281.380113 L206.634523,281.391268 C206.977756,281.0872 207.536398,280.270032 207.627649,280.447156 C207.608114,280.326086 207.671748,280.206712 207.7848,280.152346 L207.888743,280.221273 C208.084521,279.899163 208.264677,279.566397 208.45177,279.241408 C209.076446,278.634077 208.759181,279.659485 209.576964,278.687634 C209.834233,278.287952 210.122528,277.424015 209.94532,277.514216 Z M205.699173,272.080807 C205.705268,272.102093 205.707632,272.124223 205.706167,272.146271 L205.549024,271.94253 C205.59817,271.986859 205.645973,272.028701 205.699157,272.080807 L205.699173,272.080807 Z M186.530863,287.564449 L186.567957,287.568434 C186.521806,287.579821 186.473397,287.579337 186.427497,287.567029 C186.272812,287.417413 186.264277,287.335734 186.282943,287.286162 C186.347238,287.363234 186.424794,287.451639 186.530863,287.564472 L186.530863,287.564449 Z" id="Shape" fill="#215CFE" fill-rule="nonzero"></path>
                <path d="M186.50392,286.51861 C186.533864,286.542417 186.561946,286.568476 186.58792,286.59656 C186.57528,286.539582 186.559509,286.483343 186.54068,286.4281 L186.41208,286.40344 L186.50392,286.51861 Z" id="Path" fill="#7F77FF"></path>
                <path d="M193.49161,254.457395 C193.501901,254.48458 193.506611,254.51356 193.50546,254.542605 C193.504532,254.525173 193.505514,254.507693 193.50839,254.490475 L193.49161,254.457395 Z" id="Path" fill="#7F77FF"></path>
                <path d="M203.91507,267.82501 C203.36917,266.55621 203.88687,268.19245 203.08493,267.04938 L203.65842,267.95062 C203.6337,267.73651 203.60373,267.45307 203.91507,267.82501 Z" id="Path" fill="#7F77FF"></path>
                <path d="M200.630803,264.450623 C200.333983,264.219423 200.261353,264.164003 200.441403,264.563053 C200.825013,264.990733 200.563603,264.463153 200.630803,264.450623 Z" id="Path" fill="#7F77FF"></path>
                <path d="M190.38037,249.619907 L190.61963,249.512607 C190.32562,249.181617 190.53778,249.568697 190.38037,249.619907 Z" id="Path" fill="#7F77FF"></path>
                <polygon id="Path" fill="#7F77FF" points="186.758 244.767 186.242 244.233 186.613 244.634"></polygon>
                <path d="M166.310431,226.526521 L166.620061,226.669521 C166.800241,226.427041 166.606391,226.124381 166.310431,226.526521 Z" id="Path" fill="#7F77FF"></path>
                <path d="M155.062805,236.711716 C155.365191,236.594471 155.657607,236.452977 155.937195,236.288616 C155.59448,236.280042 155.268757,236.437653 155.062805,236.711716 Z" id="Path" fill="#7F77FF"></path>
                <polygon id="Path" fill="#7F77FF" points="172.2685 267.264 172.7315 267.736 172.5615 267.48"></polygon>
                <path d="M70,205.315614 L71.4260915,246.058468 L93.7404295,298.002687 C93.7404295,298.002687 87.9192979,324.936742 99.561569,323.974835 C111.20384,323.012929 100.531758,297.04078 100.531758,297.04078 L89.8596908,242.210748 L87.9193135,197 L70,205.315614 Z" id="Path" fill="#A0616A"></path>
                <polygon id="Path" fill="#CFCCE0" points="78.0003062 176.701915 78.5500042 173 83.0000557 174.74259 97 196.300708 68 211"></polygon>
            </g>
        </g>
    </g>
</svg>