<?xml version="1.0" encoding="UTF-8"?>
<svg width="221px" height="105px" viewBox="0 0 221 105" version="1.1" xmlns="http://www.w3.org/2000/svg" xmlns:xlink="http://www.w3.org/1999/xlink">
    <!-- Generator: Sketch 52.3 (67297) - http://www.bohemiancoding.com/sketch -->
    <title>Logo heavy - 1 line final point</title>
    <desc>Created with Sketch.</desc>
    <g id="Page-1" stroke="none" stroke-width="1" fill="none" fill-rule="evenodd">
        <g id="Desktop" transform="translate(-141.000000, -110.000000)">
            <g id="Logo-heavy---1-line-final-point" transform="translate(141.000000, 110.000000)">
                <g id="Typo-logo" transform="translate(123.000000, 32.000000)">
                    <circle id="Oval" fill="#225CFE" cx="91.305" cy="42.305" r="6.305"></circle>
                    <text id="bxp" font-family="JosefinSans-Regular, Josefin Sans" font-size="50" font-weight="normal" letter-spacing="-3" fill="#000000">
                        <tspan x="0" y="48">bxp</tspan>
                    </text>
                </g>
                <g id="Logo-heavy">
                    <path d="M38.458278,-1.55376046e-15 L66.541722,1.55376046e-15 C79.9145031,-9.02779573e-16 84.7637967,1.39238417 89.6526856,4.00699056 C94.5415744,6.62159695 98.3784031,10.4584256 100.993009,15.3473144 C103.607616,20.2362033 105,25.0854969 105,38.458278 L105,66.541722 C105,79.9145031 103.607616,84.7637967 100.993009,89.6526856 C98.3784031,94.5415744 94.5415744,98.3784031 89.6526856,100.993009 C84.7637967,103.607616 79.9145031,105 66.541722,105 L38.458278,105 C25.0854969,105 20.2362033,103.607616 15.3473144,100.993009 C10.4584256,98.3784031 6.62159695,94.5415744 4.00699056,89.6526856 C1.39238417,84.7637967 6.01853049e-16,79.9145031 -1.03584031e-15,66.541722 L1.03584031e-15,38.458278 C-6.01853049e-16,25.0854969 1.39238417,20.2362033 4.00699056,15.3473144 C6.62159695,10.4584256 10.4584256,6.62159695 15.3473144,4.00699056 C20.2362033,1.39238417 25.0854969,9.02779573e-16 38.458278,-1.55376046e-15 Z" id="Rectangle" fill="#225CFE"></path>
                    <g id="Shape" transform="translate(26.000000, 25.000000)" fill="#FFFFFF">
                        <path d="M32.6275544,31.789977 C31.3417635,29.3485378 29.4689725,27.524304 27.2376532,26.4064843 C30.2223162,23.6887003 32.1354072,19.3744092 32.1354072,13.75 C32.1354072,7.41130241 29.7781112,2.83457961 26.142788,0.260622707 C26.5104655,0.0931909345 26.9185158,7.95931924e-17 27.3481484,6.31088724e-30 L37.0058299,6.31088724e-30 C42.1748157,6.31088724e-30 46.2817948,1.32456913 49.3268904,3.97374712 C52.3719861,6.62292511 53.894511,10.4680336 53.894511,15.5091878 C53.894511,18.3898474 53.2803833,21.0647054 52.0521094,23.5338422 C50.8238356,26.0029789 48.9174808,27.9962626 46.3329879,29.5137529 C43.748495,31.0312432 40.5115301,31.789977 36.6219962,31.789977 L32.6275544,31.789977 Z" id="Combined-Shape"></path>
                        <path d="M24.026944,28.6935459 C26.0341001,29.7957797 27.4802213,30.8536435 28.3653077,31.8671371 C30.3868417,34.1819528 31.3975936,36.95969 31.3975936,40.200432 C31.3975936,43.3382933 30.6043453,46.0131514 29.0178249,48.2250864 C27.4313045,50.4370214 25.3330348,52.0830879 22.7229528,53.1633353 C20.1128709,54.2435826 17.2725302,54.7836982 14.2018455,54.7836982 L3.51847524,54.7836982 C1.57527502,54.7836982 5.0735836e-15,53.1950311 5.20838963e-16,51.2353111 L0,3.5483871 C-2.37973393e-16,1.58866702 1.57527502,3.59994738e-16 3.51847524,0 L12.052377,5.25266807e-16 C23.1068417,5.25266807e-16 28.6339912,4.629562 28.6339912,13.8888249 C28.6339912,16.9238055 27.9303032,19.5858036 26.5229061,21.8748992 C25.9706406,22.7731449 25.0386434,23.726338 23.7269146,24.7344783 C22.6965408,25.5263743 22.4978107,27.0107178 23.2830354,28.049848 C23.4832885,28.3148538 23.7367921,28.5342083 24.026944,28.6935459 Z" id="Path"></path>
                        <ellipse id="Oval" cx="47.6441149" cy="48.6538462" rx="6.30583874" ry="6.34615385"></ellipse>
                    </g>
                </g>
            </g>
        </g>
    </g>
</svg>