<?xml version="1.0" encoding="UTF-8"?>
<svg width="722px" height="380px" viewBox="0 0 722 380" version="1.1" xmlns="http://www.w3.org/2000/svg" xmlns:xlink="http://www.w3.org/1999/xlink">
    <!-- Generator: Sketch 52.3 (67297) - http://www.bohemiancoding.com/sketch -->
    <title>Group 4</title>
    <desc>Created with Sketch.</desc>
    <g id="Page-1" stroke="none" stroke-width="1" fill="none" fill-rule="evenodd" opacity="0.045">
        <g id="Desktop" transform="translate(-10.000000, -7.000000)" fill="#1D58FB">
            <g id="Group-4" transform="translate(5.000000, 2.000000)">
                <path d="M625.421265,224.451905 L657.482546,224.451905 C677.987477,224.451905 685.42306,226.586894 692.919356,230.595957 C700.415653,234.605021 706.29879,240.488158 710.307853,247.984454 C714.316916,255.48075 716.451905,262.916334 716.451905,283.421265 L716.451905,315.482546 C716.451905,335.987477 714.316916,343.42306 710.307853,350.919356 C706.29879,358.415653 700.415653,364.29879 692.919356,368.307853 C685.42306,372.316916 677.987477,374.451905 657.482546,374.451905 L625.421265,374.451905 C604.916334,374.451905 597.48075,372.316916 589.984454,368.307853 C582.488158,364.29879 576.605021,358.415653 572.595957,350.919356 C568.586894,343.42306 566.451905,335.987477 566.451905,315.482546 L566.451905,283.421265 C566.451905,262.916334 568.586894,255.48075 572.595957,247.984454 C576.605021,240.488158 582.488158,234.605021 589.984454,230.595957 C597.48075,226.586894 604.916334,224.451905 625.421265,224.451905 Z" id="Rectangle" transform="translate(641.451905, 299.451905) rotate(-30.000000) translate(-641.451905, -299.451905) "></path>
                <path d="M53.979207,9.11121601 L79.243225,9.11121601 C94.844803,9.11121601 100.502312,10.7356642 106.206016,13.7860383 C111.90972,16.8364125 116.38602,21.3127125 119.436394,27.0164162 C122.486768,32.7201199 124.111216,38.3776291 124.111216,53.979207 L124.111216,79.243225 C124.111216,94.844803 122.486768,100.502312 119.436394,106.206016 C116.38602,111.90972 111.90972,116.38602 106.206016,119.436394 C100.502312,122.486768 94.844803,124.111216 79.243225,124.111216 L53.979207,124.111216 C38.3776291,124.111216 32.7201199,122.486768 27.0164162,119.436394 C21.3127125,116.38602 16.8364125,111.90972 13.7860383,106.206016 C10.7356642,100.502312 9.11121601,94.844803 9.11121601,79.243225 L9.11121601,53.979207 C9.11121601,38.3776291 10.7356642,32.7201199 13.7860383,27.0164162 C16.8364125,21.3127125 21.3127125,16.8364125 27.0164162,13.7860383 C32.7201199,10.7356642 38.3776291,9.11121601 53.979207,9.11121601 Z" id="Rectangle" transform="translate(66.611216, 66.611216) rotate(-10.000000) translate(-66.611216, -66.611216) "></path>
                <path d="M171.384354,236.982445 L180.341384,236.982445 C189.867729,236.982445 194.650286,238.23559 199.050286,240.588736 C203.450286,242.941882 206.903432,246.395028 209.256578,250.795028 C211.609724,255.195028 212.862869,259.977585 212.862869,269.50393 L212.862869,278.46096 C212.862869,287.987304 211.609724,292.769862 209.256578,297.169862 C206.903432,301.569862 203.450286,305.023007 199.050286,307.376153 C194.650286,309.729299 189.867729,310.982445 180.341384,310.982445 L171.384354,310.982445 C161.85801,310.982445 157.075452,309.729299 152.675452,307.376153 C148.275452,305.023007 144.822307,301.569862 142.469161,297.169862 C140.116015,292.769862 138.862869,287.987304 138.862869,278.46096 L138.862869,269.50393 C138.862869,259.977585 140.116015,255.195028 142.469161,250.795028 C144.822307,246.395028 148.275452,242.941882 152.675452,240.588736 C157.075452,238.23559 161.85801,236.982445 171.384354,236.982445 Z" id="Rectangle" transform="translate(175.862869, 273.982445) rotate(10.000000) translate(-175.862869, -273.982445) "></path>
                <path d="M510.242633,29.8857232 L535.528814,29.8857232 C543.998242,29.8857232 547.069461,30.7675665 550.165757,32.4234839 C553.262054,34.0794012 555.692045,36.5093927 557.347962,39.605689 C559.00388,42.7019853 559.885723,45.7732045 559.885723,54.2426326 L559.885723,79.5288138 C559.885723,87.9982418 559.00388,91.0694611 557.347962,94.1657574 C555.692045,97.2620536 553.262054,99.6920451 550.165757,101.347962 C547.069461,103.00388 543.998242,103.885723 535.528814,103.885723 L510.242633,103.885723 C501.773205,103.885723 498.701985,103.00388 495.605689,101.347962 C492.509393,99.6920451 490.079401,97.2620536 488.423484,94.1657574 C486.767566,91.0694611 485.885723,87.9982418 485.885723,79.5288138 L485.885723,54.2426326 C485.885723,45.7732045 486.767566,42.7019853 488.423484,39.605689 C490.079401,36.5093927 492.509393,34.0794012 495.605689,32.4234839 C498.701985,30.7675665 501.773205,29.8857232 510.242633,29.8857232 Z" id="Rectangle" transform="translate(522.885723, 66.885723) rotate(13.000000) translate(-522.885723, -66.885723) "></path>
                <path d="M327.34848,140.374881 L339.401283,140.374881 C342.521599,140.374881 343.653101,140.699771 344.793841,141.309846 C345.934582,141.919921 346.829842,142.815181 347.439917,143.955921 C348.049992,145.096662 348.374881,146.228164 348.374881,149.34848 L348.374881,161.401283 C348.374881,164.521599 348.049992,165.653101 347.439917,166.793841 C346.829842,167.934582 345.934582,168.829842 344.793841,169.439917 C343.653101,170.049992 342.521599,170.374881 339.401283,170.374881 L327.34848,170.374881 C324.228164,170.374881 323.096662,170.049992 321.955921,169.439917 C320.815181,168.829842 319.919921,167.934582 319.309846,166.793841 C318.699771,165.653101 318.374881,164.521599 318.374881,161.401283 L318.374881,149.34848 C318.374881,146.228164 318.699771,145.096662 319.309846,143.955921 C319.919921,142.815181 320.815181,141.919921 321.955921,141.309846 C323.096662,140.699771 324.228164,140.374881 327.34848,140.374881 Z" id="Rectangle" transform="translate(333.374881, 155.374881) rotate(40.000000) translate(-333.374881, -155.374881) "></path>
            </g>
        </g>
    </g>
</svg>